<?xml version="1.0" ?><svg height="60px" version="1.1" viewBox="0 0 60 60" width="60px" xmlns="http://www.w3.org/2000/svg" xmlns:xlink="http://www.w3.org/1999/xlink"><title/><desc/><defs/><g fill="none" fill-rule="evenodd" id="Page-1" stroke="none" stroke-width="1"><g id="006---Present"><g fill-rule="nonzero" id="Colour"><path d="M37.59,26 L56,26 L56,57 C55.9967707,58.1032291 55.1032291,58.9967707 54,59 L6,59 C4.89677088,58.9967707 4.00322927,58.1032291 4,57 L4,26 L22.4,26" fill="#00939F" id="Shape"/><path d="M35.65212,26 L53,26 L53,57 C53.0277318,58.0711351 52.1862728,58.9641098 51.11538,59 L5.88462,59 C4.81372718,58.9641098 3.97226822,58.0711351 4,57 L4,26 L21.33846,26" fill="#00C6DB" id="Shape"/><path d="M22.4,26 L3,26 C1.89677088,25.9967707 1.00322927,25.1032291 1,24 L1,18 C1.00322927,16.8967709 1.89677088,16.0032293 3,16 L57,16 C58.1032291,16.0032293 58.9967707,16.8967709 59,18 L59,24 C58.9967707,25.1032291 58.1032291,25.9967707 57,26 L37.59,26" fill="#00939F" id="Shape"/><path d="M21.2931,26 L2.89655,26 C1.82227178,25.9675733 0.975378888,25.0744854 1,24 L1,18 C0.975378888,16.9255146 1.82227178,16.0324267 2.89655,16 L54.10345,16 C55.1777282,16.0324267 56.0246211,16.9255146 56,18 L56,24 C56.0246211,25.0744854 55.1777282,25.9675733 54.10345,26 L35.69745,26" fill="#00C6DB" id="Shape"/><path d="M35,37.8 L35,59 L25,59 L25,37.8 C27.1098875,34.8799552 28.7934358,31.6744793 30,28.28 C31.2065642,31.6744793 32.8901125,34.8799552 35,37.8 L35,37.8 Z" fill="#D13D34" id="Shape"/><path d="M30,16 L27,16 C25.8957747,13.9411996 24.6424305,11.9659291 23.25,10.09 C21.4,7.61 18.9,4.07 15.41,4.13 C14.7758313,4.1275259 14.1496244,4.27124551 13.58,4.55 C12.5644896,5.0819385 11.8925815,6.0973502 11.8,7.24 C11.837413,8.53142116 12.3752765,9.7577501 13.3,10.66 C15.79,13.45 19.48,14.92 22.97,16 L19.17,16 C6.66,15.13 4.66,2.05 14,1.05 C24,-0.02 30,16 30,16 Z" fill="#F85B44" id="Shape"/><path d="M40.83,16 L37,16 C40.49,14.92 44.21,13.45 46.7,10.66 C47.6247235,9.7577501 48.162587,8.53142116 48.2,7.24 C48.1074185,6.0973502 47.4355104,5.0819385 46.42,4.55 C45.8503756,4.27124551 45.2241687,4.1275259 44.59,4.13 C41.1,4.07 38.6,7.61 36.75,10.09 C35.3575695,11.9659291 34.1042253,13.9411996 33,16 L30,16 C30,16 36,-0.02 46,1.05 C55.34,2.05 53.34,15.13 40.83,16 Z" fill="#F85B44" id="Shape"/><path d="M30,28.28 C28.7934358,31.6744793 27.1098875,34.8799552 25,37.8 C19.44,45.17 14,44 14,44 L17,38 L10,36 C16.09,34.89 19.98,30.43 22.4,26 C24.0892767,22.8636418 25.3025571,19.4934184 26,16 L26.57,16 C27.2385147,19.3836603 28.1134836,22.7232361 29.19,26 C29.45,26.79 29.72,27.55 30,28.28 Z" fill="#F85B44" id="Shape"/><path d="M43,38 L46,44 C46,44 40.56,45.17 35,37.8 C32.8901125,34.8799552 31.2065642,31.6744793 30,28.28 C29.72,27.55 29.45,26.79 29.19,26 C28.1134836,22.7232361 27.2385147,19.3836603 26.57,16 L34,16 C34.449692,18.2729713 35.1195155,20.4967855 36,22.64 C36.4676019,23.7884778 36.9984138,24.9101934 37.59,26 C40.01,30.43 43.91,34.89 50,36 L43,38 Z" fill="#F85B44" id="Shape"/></g><g id="Outline" stroke="#000000" stroke-linecap="round" stroke-linejoin="round" transform="translate(1.000000, 0.000000)"><path d="M36.59,26 L55,26 L55,57 C54.9967707,58.1032291 54.1032291,58.9967707 53,59 L5,59 C3.89677088,58.9967707 3.00322927,58.1032291 3,57 L3,26 L21.4,26" id="Shape" stroke-width="2"/><path d="M21.4,26 L2,26 C0.896770878,25.9967707 0.00322927335,25.1032291 0,24 L0,18 C0.00322927335,16.8967709 0.896770878,16.0032293 2,16 L56,16 C57.1032291,16.0032293 57.9967707,16.8967709 58,18 L58,24 C57.9967707,25.1032291 57.1032291,25.9967707 56,26 L36.59,26" id="Shape" stroke-width="2"/><polyline id="Shape" points="23 16 25 16 25.57 16 26 16 29 16 32 16 32.43 16 33 16 35 16"/><polyline id="Shape" points="34 37.8 34 59 24 59 24 37.8"/><path d="M29,16 C29,16 23,-0.02 13,1.05 C3.66,2.05 5.66,15.13 18.17,16" id="Shape" stroke-width="2"/><path d="M26,16 C24.8929393,13.9438001 23.6407159,11.9691293 22.25285,10.091 C20.40272,7.60694 17.89926,4.06634 14.40735,4.12607 C13.7732238,4.12639566 13.1476865,4.27271845 12.57921,4.5537 C11.5618897,5.08215391 10.8900955,6.09901744 10.80311,7.2421 C10.8401785,8.53167124 11.3751651,9.75679154 12.29586,10.6605 C14.79485,13.44777 18.50592,14.9249 22,16" id="Shape"/><path d="M39.83,16 C52.34,15.13 54.34,2.05 45,1.05 C35,-0.02 29,16 29,16" id="Shape" stroke-width="2"/><path d="M36,16 C39.49408,14.9249 43.20515,13.44777 45.70414,10.66051 C46.6248349,9.75680154 47.1598215,8.53168124 47.19689,7.24211 C47.1099045,6.09902744 46.4381103,5.08216391 45.42079,4.55371 C44.8523135,4.27272845 44.2267762,4.12640566 43.59265,4.12608 C40.10074,4.06635 37.59728,7.60695 35.74715,10.09101 C34.3592845,11.9691361 33.1070611,13.9438035 32,16" id="Shape"/><path d="M25,16 C24.3025538,19.4934175 23.0892736,22.8636404 21.4,26 C18.98,30.43 15.09,34.89 9,36 L16,38 L13,44 C13,44 18.44,45.17 24,37.8 C26.1098816,34.8799516 27.7934295,31.6744765 29,28.28" id="Shape" stroke-width="2"/><path d="M33,16 C33.4496805,18.2729741 34.1195044,20.4967895 35,22.64 C35.4676164,23.7884714 35.9984279,24.9101862 36.59,26 C39.01,30.43 42.91,34.89 49,36 L42,38 L45,44 C45,44 39.56,45.17 34,37.8 C31.8901184,34.8799516 30.2065705,31.6744765 29,28.28 C28.72,27.55 28.45,26.79 28.19,26 C27.1135028,22.7232304 26.2385343,19.3836558 25.57,16" id="Shape" stroke-width="2"/></g></g></g></svg>